<svg xmlns="http://www.w3.org/2000/svg" viewBox="0 0 1920 1080" preserveAspectRatio="xMidYMid slice">
  <defs>
    <linearGradient id="sky" x1="0" y1="0" x2="0" y2="1">
      <stop offset="0%" stop-color="#0f60c8" />
      <stop offset="50%" stop-color="#4aa1ff" />
      <stop offset="100%" stop-color="#87d5ff" />
    </linearGradient>
    <linearGradient id="field" x1="0" y1="0" x2="0" y2="1">
      <stop offset="0%" stop-color="#6c2c9c" />
      <stop offset="35%" stop-color="#7a3aa9" />
      <stop offset="100%" stop-color="#2b1652" />
    </linearGradient>
    <linearGradient id="mountain" x1="0" y1="0" x2="1" y2="1">
      <stop offset="0%" stop-color="#dfe7f1" />
      <stop offset="40%" stop-color="#b3bfcc" />
      <stop offset="100%" stop-color="#768398" />
    </linearGradient>
  </defs>
  <rect width="100%" height="100%" fill="url(#sky)" />
  <path d="M-120 720 L260 520 L520 560 L760 470 L1100 540 L1500 520 L1940 700 L1940 1080 L-120 1080 Z" fill="url(#mountain)" />
  <rect y="620" width="1920" height="460" fill="url(#field)" />
  <g opacity="0.45">
    <rect x="-120" y="620" width="1920" height="460" fill="#4b8c3f" />
  </g>
  <g fill="#b58bf2" opacity="0.75">
    <circle cx="120" cy="820" r="32" />
    <circle cx="260" cy="900" r="36" />
    <circle cx="420" cy="780" r="28" />
    <circle cx="600" cy="920" r="40" />
    <circle cx="780" cy="840" r="32" />
    <circle cx="950" cy="880" r="34" />
    <circle cx="1120" cy="820" r="36" />
    <circle cx="1300" cy="900" r="40" />
    <circle cx="1480" cy="780" r="28" />
    <circle cx="1660" cy="920" r="36" />
    <circle cx="1820" cy="820" r="34" />
  </g>
</svg>
